<svg width="80" height="78" viewBox="0 0 80 78" fill="none" xmlns="http://www.w3.org/2000/svg">
<g clip-path="url(#clip0)">
<path d="M40 7.02975C50.68 7.02975 51.9467 7.06875 56.1667 7.25725C67.0067 7.73825 72.07 12.753 72.5633 23.244C72.7567 27.3552 72.7933 28.5903 72.7933 39.0033C72.7933 49.4195 72.7533 50.6513 72.5633 54.7625C72.0667 65.2438 67.0167 70.2682 56.1667 70.7492C51.9467 70.9377 50.6867 70.9768 40 70.9768C29.32 70.9768 28.0533 70.9377 23.8367 70.7492C12.97 70.265 7.93333 65.2275 7.44 54.7593C7.24667 50.648 7.20667 49.4162 7.20667 39C7.20667 28.587 7.25 27.3552 7.44 23.2407C7.93667 12.753 12.9867 7.735 23.8367 7.254C28.0567 7.06875 29.32 7.02975 40 7.02975ZM40 0C29.1367 0 27.7767 0.0455 23.51 0.234C8.98333 0.884 0.91 8.7425 0.243333 22.919C0.0466667 27.0823 0 28.4082 0 39C0 49.5918 0.0466667 50.921 0.24 55.081C0.906667 69.2445 8.96667 77.116 23.5067 77.766C27.7767 77.9545 29.1367 78 40 78C50.8633 78 52.2267 77.9545 56.4933 77.766C71.0067 77.116 79.1 69.2575 79.7567 55.081C79.9533 50.921 80 49.5918 80 39C80 28.4082 79.9533 27.0823 79.76 22.9223C79.1067 8.77175 71.0367 0.88725 56.4967 0.23725C52.2267 0.0455 50.8633 0 40 0V0ZM40 18.9735C28.6567 18.9735 19.46 27.9403 19.46 39C19.46 50.0597 28.6567 59.0298 40 59.0298C51.3433 59.0298 60.54 50.063 60.54 39C60.54 27.9403 51.3433 18.9735 40 18.9735ZM40 52C32.6367 52 26.6667 46.1825 26.6667 39C26.6667 31.8207 32.6367 26 40 26C47.3633 26 53.3333 31.8207 53.3333 39C53.3333 46.1825 47.3633 52 40 52ZM61.3533 13.5038C58.7 13.5038 56.55 15.6 56.55 18.1838C56.55 20.7675 58.7 22.8638 61.3533 22.8638C64.0033 22.8638 66.15 20.7675 66.15 18.1838C66.15 15.6 64.0033 13.5038 61.3533 13.5038Z" fill="url(#paint0_linear)"/>
</g>
<defs>
<linearGradient id="paint0_linear" x1="40" y1="0" x2="40" y2="78" gradientUnits="userSpaceOnUse">
<stop stop-color="#5E8D97"/>
<stop offset="0.9999" stop-color="#527B84" stop-opacity="0.875"/>
<stop offset="1" stop-opacity="0"/>
</linearGradient>
<clipPath id="clip0">
<rect width="80" height="78" fill="white"/>
</clipPath>
</defs>
</svg>
