<svg width="84" height="78" viewBox="0 0 84 78" fill="none" xmlns="http://www.w3.org/2000/svg">
<g clip-path="url(#clip0)">
<path fill-rule="evenodd" clip-rule="evenodd" d="M64.3454 74.0315C65.4724 74.7725 66.9249 74.9578 68.2199 74.5028C69.5149 74.0445 70.4669 73.0175 70.7539 71.7728C73.7954 58.4998 81.1734 24.9045 83.9419 12.8307C84.1519 11.9207 83.8019 10.975 83.0319 10.3672C82.2619 9.7595 81.1944 9.584 80.2424 9.91225C65.5669 14.9563 20.3714 30.7025 1.89839 37.0498C0.725893 37.4528 -0.0371075 38.4993 0.00139249 39.6465C0.0433925 40.797 0.876393 41.7948 2.07689 42.1295C10.3614 44.4305 21.2359 47.6318 21.2359 47.6318C21.2359 47.6318 26.3179 61.883 28.9674 69.1305C29.2999 70.0405 30.0664 70.7555 31.0779 71.0025C32.0859 71.2463 33.1639 70.9895 33.9164 70.3298C38.1724 66.5988 44.7524 60.83 44.7524 60.83C44.7524 60.83 57.2544 69.3418 64.3454 74.0315ZM25.8104 45.8313L31.6869 63.8298L32.9924 52.432C32.9924 52.432 55.6969 33.4163 68.6399 22.5775C69.0179 22.259 69.0704 21.726 68.7554 21.3523C68.4439 20.9785 67.8699 20.8908 67.4394 21.1443C52.4384 30.0395 25.8104 45.8313 25.8104 45.8313Z" fill="url(#paint0_linear)"/>
</g>
<defs>
<linearGradient id="paint0_linear" x1="42.001" y1="9.74927" x2="42.001" y2="74.7492" gradientUnits="userSpaceOnUse">
<stop stop-color="#5E8D97"/>
<stop offset="0.9999" stop-color="#020202" stop-opacity="0.671875"/>
<stop offset="1" stop-color="#5E8D97" stop-opacity="0"/>
</linearGradient>
<clipPath id="clip0">
<rect width="84" height="78" fill="white"/>
</clipPath>
</defs>
</svg>
