<svg width="93" height="62" viewBox="0 0 93 62" fill="none" xmlns="http://www.w3.org/2000/svg">
<path d="M93 7.43049C89.5784 8.67182 85.901 9.50782 82.0415 9.88465C85.9824 7.95615 89.0088 4.90032 90.4309 1.25865C86.7458 3.04465 82.6615 4.34299 78.3137 5.04282C74.8379 2.01232 69.874 0.118652 64.387 0.118652C52.0684 0.118652 43.0164 9.51098 45.7986 19.2612C29.946 18.612 15.8875 12.4053 6.47512 2.97182C1.47638 9.97965 3.88275 19.1471 12.3767 23.7895C9.2535 23.7071 6.3085 23.0073 3.73937 21.8388C3.53012 29.062 9.86575 35.8196 19.0417 37.3238C16.3564 37.9191 13.4152 38.0585 10.4237 37.5898C12.8495 43.7838 19.8943 48.29 28.2488 48.4166C20.2275 53.5561 10.1215 55.852 0 54.8767C8.44362 59.3005 18.476 61.8813 29.2485 61.8813C64.6738 61.8813 84.6881 37.4315 83.4791 15.5023C87.2069 13.3015 90.4425 10.556 93 7.43049Z" fill="url(#paint0_linear)"/>
<defs>
<linearGradient id="paint0_linear" x1="46.5" y1="0.118652" x2="46.5" y2="61.8813" gradientUnits="userSpaceOnUse">
<stop stop-color="#5E8D97"/>
<stop offset="1" stop-opacity="0.62"/>
</linearGradient>
</defs>
</svg>
